<?xml version="1.0" encoding="UTF-8" standalone="no"?>
<!-- Created with Inkscape (http://www.inkscape.org/) -->

<svg
   xmlns:osb="http://www.openswatchbook.org/uri/2009/osb"
   xmlns:dc="http://purl.org/dc/elements/1.1/"
   xmlns:cc="http://creativecommons.org/ns#"
   xmlns:rdf="http://www.w3.org/1999/02/22-rdf-syntax-ns#"
   xmlns:svg="http://www.w3.org/2000/svg"
   xmlns="http://www.w3.org/2000/svg"
   xmlns:xlink="http://www.w3.org/1999/xlink"
   xmlns:sodipodi="http://sodipodi.sourceforge.net/DTD/sodipodi-0.dtd"
   xmlns:inkscape="http://www.inkscape.org/namespaces/inkscape"
   width="256"
   height="256"
   id="svg2"
   version="1.1"
   inkscape:version="0.48.2 r9819"
   sodipodi:docname="SymPySlices.svg"
   inkscape:export-filename="/home/mashbudn/Programming/Python/newPyCrust/SymPySlices_256.png"
   inkscape:export-xdpi="90.967453"
   inkscape:export-ydpi="90.967453">
  <defs
     id="defs4">
    <pattern
       inkscape:collect="always"
       xlink:href="#pattern6416"
       id="pattern6519"
       patternTransform="matrix(2.0898067,0,-0.83243956,2.0912482,-368.0913,-8.4475754)" />
    <linearGradient
       id="linearGradient6421"
       osb:paint="solid">
      <stop
         style="stop-color:#8f004f;stop-opacity:1;"
         offset="0"
         id="stop6423" />
    </linearGradient>
    <linearGradient
       id="linearGradient5443">
      <stop
         style="stop-color:#eace9d;stop-opacity:1;"
         offset="0"
         id="stop5445" />
      <stop
         id="stop3440"
         offset="0.125"
         style="stop-color:#cfb382;stop-opacity:1;" />
      <stop
         id="stop5455"
         offset="0.25"
         style="stop-color:#eace9d;stop-opacity:1;" />
      <stop
         style="stop-color:#d2b687;stop-opacity:1;"
         offset="0.375"
         id="stop3442" />
      <stop
         id="stop5453"
         offset="0.5"
         style="stop-color:#f0d5a6;stop-opacity:1;" />
      <stop
         style="stop-color:#d2b687;stop-opacity:1;"
         offset="0.625"
         id="stop3444" />
      <stop
         style="stop-color:#eace9d;stop-opacity:1;"
         offset="0.75"
         id="stop5461" />
      <stop
         id="stop3446"
         offset="0.875"
         style="stop-color:#d2b687;stop-opacity:1;" />
      <stop
         id="stop5451"
         offset="1"
         style="stop-color:#f0d5a6;stop-opacity:1;" />
    </linearGradient>
    <linearGradient
       id="linearGradient5431">
      <stop
         style="stop-color:#d08f00;stop-opacity:1;"
         offset="0"
         id="stop5433" />
      <stop
         id="stop5439"
         offset="1"
         style="stop-color:#7a4300;stop-opacity:1;" />
    </linearGradient>
    <linearGradient
       inkscape:collect="always"
       xlink:href="#linearGradient5431"
       id="linearGradient5437"
       x1="412.67859"
       y1="437.71936"
       x2="459.51468"
       y2="389.48486"
       gradientUnits="userSpaceOnUse"
       gradientTransform="matrix(2.0898067,0,0,2.0912482,-759.78787,-8.4467388)" />
    <linearGradient
       inkscape:collect="always"
       xlink:href="#linearGradient5443"
       id="linearGradient5449"
       x1="444.87805"
       y1="373.11209"
       x2="485.71429"
       y2="443.79071"
       gradientUnits="userSpaceOnUse"
       gradientTransform="matrix(2.0898067,0,0,2.0912482,-759.78787,-8.4467388)" />
    <pattern
       patternUnits="userSpaceOnUse"
       width="102.14"
       height="109"
       patternTransform="translate(-0.75999975,-3.5699999)"
       id="pattern6061">
      <circle
         transform="matrix(10,0,0,10,0.75999975,3.5699999)"
         sodipodi:ry="0.44999999"
         sodipodi:rx="0.44999999"
         sodipodi:cy="0.81"
         sodipodi:cx="2.5669999"
         id="circle5973"
         r="0.44999999"
         cy="0.81"
         cx="2.5669999"
         style="fill:#4c062d;fill-opacity:1;stroke:none" />
      <circle
         transform="matrix(10,0,0,10,0.75999975,3.5699999)"
         sodipodi:ry="0.44999999"
         sodipodi:rx="0.44999999"
         sodipodi:cy="2.3299999"
         sodipodi:cx="3.0480001"
         id="circle5975"
         r="0.44999999"
         cy="2.3299999"
         cx="3.0480001"
         style="fill:#4c062d;fill-opacity:1;stroke:none" />
      <circle
         transform="matrix(10,0,0,10,0.75999975,3.5699999)"
         sodipodi:ry="0.44999999"
         sodipodi:rx="0.44999999"
         sodipodi:cy="2.415"
         sodipodi:cx="4.4180002"
         id="circle5977"
         r="0.44999999"
         cy="2.415"
         cx="4.4180002"
         style="fill:#4c062d;fill-opacity:1;stroke:none" />
      <circle
         transform="matrix(10,0,0,10,0.75999975,3.5699999)"
         sodipodi:ry="0.44999999"
         sodipodi:rx="0.44999999"
         sodipodi:cy="3.029"
         sodipodi:cx="1.844"
         id="circle5979"
         r="0.44999999"
         cy="3.029"
         cx="1.844"
         style="fill:#4c062d;fill-opacity:1;stroke:none" />
      <circle
         transform="matrix(10,0,0,10,0.75999975,3.5699999)"
         sodipodi:ry="0.44999999"
         sodipodi:rx="0.44999999"
         sodipodi:cy="1.363"
         sodipodi:cx="6.0799999"
         id="circle5981"
         r="0.44999999"
         cy="1.363"
         cx="6.0799999"
         style="fill:#4c062d;fill-opacity:1;stroke:none" />
      <circle
         transform="matrix(10,0,0,10,0.75999975,3.5699999)"
         sodipodi:ry="0.44999999"
         sodipodi:rx="0.44999999"
         sodipodi:cy="4.4130001"
         sodipodi:cx="5.8189998"
         id="circle5983"
         r="0.44999999"
         cy="4.4130001"
         cx="5.8189998"
         style="fill:#4c062d;fill-opacity:1;stroke:none" />
      <circle
         transform="matrix(10,0,0,10,0.75999975,3.5699999)"
         sodipodi:ry="0.44999999"
         sodipodi:rx="0.44999999"
         sodipodi:cy="4.0479999"
         sodipodi:cx="4.3049998"
         id="circle5985"
         r="0.44999999"
         cy="4.0479999"
         cx="4.3049998"
         style="fill:#4c062d;fill-opacity:1;stroke:none" />
      <circle
         transform="matrix(10,0,0,10,0.75999975,3.5699999)"
         sodipodi:ry="0.44999999"
         sodipodi:rx="0.44999999"
         sodipodi:cy="3.0450001"
         sodipodi:cx="5.5409999"
         id="circle5987"
         r="0.44999999"
         cy="3.0450001"
         cx="5.5409999"
         style="fill:#4c062d;fill-opacity:1;stroke:none" />
      <circle
         transform="matrix(10,0,0,10,0.75999975,3.5699999)"
         sodipodi:ry="0.44999999"
         sodipodi:rx="0.44999999"
         sodipodi:cy="5.527"
         sodipodi:cx="4.7849998"
         id="circle5989"
         r="0.44999999"
         cy="5.527"
         cx="4.7849998"
         style="fill:#4c062d;fill-opacity:1;stroke:none" />
      <circle
         transform="matrix(10,0,0,10,0.75999975,3.5699999)"
         sodipodi:ry="0.44999999"
         sodipodi:rx="0.44999999"
         sodipodi:cy="5.184"
         sodipodi:cx="2.6670001"
         id="circle5991"
         r="0.44999999"
         cy="5.184"
         cx="2.6670001"
         style="fill:#4c062d;fill-opacity:1;stroke:none" />
      <circle
         transform="matrix(10,0,0,10,0.75999975,3.5699999)"
         sodipodi:ry="0.44999999"
         sodipodi:rx="0.44999999"
         sodipodi:cy="1.448"
         sodipodi:cx="7.9650002"
         id="circle5993"
         r="0.44999999"
         cy="1.448"
         cx="7.9650002"
         style="fill:#4c062d;fill-opacity:1;stroke:none" />
      <circle
         transform="matrix(10,0,0,10,0.75999975,3.5699999)"
         sodipodi:ry="0.44999999"
         sodipodi:rx="0.44999999"
         sodipodi:cy="5.0489998"
         sodipodi:cx="7.0469999"
         id="circle5995"
         r="0.44999999"
         cy="5.0489998"
         cx="7.0469999"
         style="fill:#4c062d;fill-opacity:1;stroke:none" />
      <circle
         transform="matrix(10,0,0,10,0.75999975,3.5699999)"
         sodipodi:ry="0.44999999"
         sodipodi:rx="0.44999999"
         sodipodi:cy="0.89499998"
         sodipodi:cx="4.3400002"
         id="circle5997"
         r="0.44999999"
         cy="0.89499998"
         cx="4.3400002"
         style="fill:#4c062d;fill-opacity:1;stroke:none" />
      <circle
         transform="matrix(10,0,0,10,0.75999975,3.5699999)"
         sodipodi:ry="0.44999999"
         sodipodi:rx="0.44999999"
         sodipodi:cy="0.34"
         sodipodi:cx="7.125"
         id="circle5999"
         r="0.44999999"
         cy="0.34"
         cx="7.125"
         style="fill:#4c062d;fill-opacity:1;stroke:none" />
      <circle
         transform="matrix(10,0,0,10,0.75999975,3.5699999)"
         sodipodi:ry="0.44999999"
         sodipodi:rx="0.44999999"
         sodipodi:cy="1.049"
         sodipodi:cx="9.5530005"
         id="circle6001"
         r="0.44999999"
         cy="1.049"
         cx="9.5530005"
         style="fill:#4c062d;fill-opacity:1;stroke:none" />
      <circle
         transform="matrix(10,0,0,10,0.75999975,3.5699999)"
         sodipodi:ry="0.44999999"
         sodipodi:rx="0.44999999"
         sodipodi:cy="2.6889999"
         sodipodi:cx="7.006"
         id="circle6003"
         r="0.44999999"
         cy="2.6889999"
         cx="7.006"
         style="fill:#4c062d;fill-opacity:1;stroke:none" />
      <circle
         transform="matrix(10,0,0,10,0.75999975,3.5699999)"
         sodipodi:ry="0.44999999"
         sodipodi:rx="0.44999999"
         sodipodi:cy="2.6889999"
         sodipodi:cx="8.9090004"
         id="circle6005"
         r="0.44999999"
         cy="2.6889999"
         cx="8.9090004"
         style="fill:#4c062d;fill-opacity:1;stroke:none" />
      <circle
         transform="matrix(10,0,0,10,0.75999975,3.5699999)"
         sodipodi:ry="0.44999999"
         sodipodi:rx="0.44999999"
         sodipodi:cy="4.4070001"
         sodipodi:cx="9.3149996"
         id="circle6007"
         r="0.44999999"
         cy="4.4070001"
         cx="9.3149996"
         style="fill:#4c062d;fill-opacity:1;stroke:none" />
      <circle
         transform="matrix(10,0,0,10,0.75999975,3.5699999)"
         sodipodi:ry="0.44999999"
         sodipodi:rx="0.44999999"
         sodipodi:cy="3.8699999"
         sodipodi:cx="7.8200002"
         id="circle6009"
         r="0.44999999"
         cy="3.8699999"
         cx="7.8200002"
         style="fill:#4c062d;fill-opacity:1;stroke:none" />
      <circle
         transform="matrix(10,0,0,10,0.75999975,3.5699999)"
         sodipodi:ry="0.44999999"
         sodipodi:rx="0.44999999"
         sodipodi:cy="5.948"
         sodipodi:cx="8.2700005"
         id="circle6011"
         r="0.44999999"
         cy="5.948"
         cx="8.2700005"
         style="fill:#4c062d;fill-opacity:1;stroke:none" />
      <circle
         transform="matrix(10,0,0,10,0.75999975,3.5699999)"
         sodipodi:ry="0.44999999"
         sodipodi:rx="0.44999999"
         sodipodi:cy="7.428"
         sodipodi:cx="7.973"
         id="circle6013"
         r="0.44999999"
         cy="7.428"
         cx="7.973"
         style="fill:#4c062d;fill-opacity:1;stroke:none" />
      <circle
         transform="matrix(10,0,0,10,0.75999975,3.5699999)"
         sodipodi:ry="0.44999999"
         sodipodi:rx="0.44999999"
         sodipodi:cy="8.0719995"
         sodipodi:cx="9.342"
         id="circle6015"
         r="0.44999999"
         cy="8.0719995"
         cx="9.342"
         style="fill:#4c062d;fill-opacity:1;stroke:none" />
      <circle
         transform="matrix(10,0,0,10,0.75999975,3.5699999)"
         sodipodi:ry="0.44999999"
         sodipodi:rx="0.44999999"
         sodipodi:cy="9.3149996"
         sodipodi:cx="8.2060003"
         id="circle6017"
         r="0.44999999"
         cy="9.3149996"
         cx="8.2060003"
         style="fill:#4c062d;fill-opacity:1;stroke:none" />
      <circle
         transform="matrix(10,0,0,10,0.75999975,3.5699999)"
         sodipodi:ry="0.44999999"
         sodipodi:rx="0.44999999"
         sodipodi:cy="9.4750004"
         sodipodi:cx="9.6820002"
         id="circle6019"
         r="0.44999999"
         cy="9.4750004"
         cx="9.6820002"
         style="fill:#4c062d;fill-opacity:1;stroke:none" />
      <circle
         transform="matrix(10,0,0,10,0.75999975,3.5699999)"
         sodipodi:ry="0.44999999"
         sodipodi:rx="0.44999999"
         sodipodi:cy="6.1859999"
         sodipodi:cx="9.6879997"
         id="circle6021"
         r="0.44999999"
         cy="6.1859999"
         cx="9.6879997"
         style="fill:#4c062d;fill-opacity:1;stroke:none" />
      <circle
         transform="matrix(10,0,0,10,0.75999975,3.5699999)"
         sodipodi:ry="0.44999999"
         sodipodi:rx="0.44999999"
         sodipodi:cy="6.296"
         sodipodi:cx="3.3789999"
         id="circle6023"
         r="0.44999999"
         cy="6.296"
         cx="3.3789999"
         style="fill:#4c062d;fill-opacity:1;stroke:none" />
      <circle
         transform="matrix(10,0,0,10,0.75999975,3.5699999)"
         sodipodi:ry="0.44999999"
         sodipodi:rx="0.44999999"
         sodipodi:cy="8.2040005"
         sodipodi:cx="2.8710001"
         id="circle6025"
         r="0.44999999"
         cy="8.2040005"
         cx="2.8710001"
         style="fill:#4c062d;fill-opacity:1;stroke:none" />
      <circle
         transform="matrix(10,0,0,10,0.75999975,3.5699999)"
         sodipodi:ry="0.44999999"
         sodipodi:rx="0.44999999"
         sodipodi:cy="8.7189999"
         sodipodi:cx="4.5900002"
         id="circle6027"
         r="0.44999999"
         cy="8.7189999"
         cx="4.5900002"
         style="fill:#4c062d;fill-opacity:1;stroke:none" />
      <circle
         transform="matrix(10,0,0,10,0.75999975,3.5699999)"
         sodipodi:ry="0.44999999"
         sodipodi:rx="0.44999999"
         sodipodi:cy="9.6709995"
         sodipodi:cx="3.181"
         id="circle6029"
         r="0.44999999"
         cy="9.6709995"
         cx="3.181"
         style="fill:#4c062d;fill-opacity:1;stroke:none" />
      <circle
         transform="matrix(10,0,0,10,0.75999975,3.5699999)"
         sodipodi:ry="0.44999999"
         sodipodi:rx="0.44999999"
         sodipodi:cy="7.3150001"
         sodipodi:cx="5.7340002"
         id="circle6031"
         r="0.44999999"
         cy="7.3150001"
         cx="5.7340002"
         style="fill:#4c062d;fill-opacity:1;stroke:none" />
      <circle
         transform="matrix(10,0,0,10,0.75999975,3.5699999)"
         sodipodi:ry="0.44999999"
         sodipodi:rx="0.44999999"
         sodipodi:cy="6.513"
         sodipodi:cx="6.7069998"
         id="circle6033"
         r="0.44999999"
         cy="6.513"
         cx="6.7069998"
         style="fill:#4c062d;fill-opacity:1;stroke:none" />
      <circle
         transform="matrix(10,0,0,10,0.75999975,3.5699999)"
         sodipodi:ry="0.44999999"
         sodipodi:rx="0.44999999"
         sodipodi:cy="9.6700001"
         sodipodi:cx="5.73"
         id="circle6035"
         r="0.44999999"
         cy="9.6700001"
         cx="5.73"
         style="fill:#4c062d;fill-opacity:1;stroke:none" />
      <circle
         transform="matrix(10,0,0,10,0.75999975,3.5699999)"
         sodipodi:ry="0.44999999"
         sodipodi:rx="0.44999999"
         sodipodi:cy="8.3730001"
         sodipodi:cx="6.5349998"
         id="circle6037"
         r="0.44999999"
         cy="8.3730001"
         cx="6.5349998"
         style="fill:#4c062d;fill-opacity:1;stroke:none" />
      <circle
         transform="matrix(10,0,0,10,0.75999975,3.5699999)"
         sodipodi:ry="0.44999999"
         sodipodi:rx="0.44999999"
         sodipodi:cy="7.1539998"
         sodipodi:cx="4.3699999"
         id="circle6039"
         r="0.44999999"
         cy="7.1539998"
         cx="4.3699999"
         style="fill:#4c062d;fill-opacity:1;stroke:none" />
      <circle
         transform="matrix(10,0,0,10,0.75999975,3.5699999)"
         sodipodi:ry="0.44999999"
         sodipodi:rx="0.44999999"
         sodipodi:cy="7.25"
         sodipodi:cx="0.62199998"
         id="circle6041"
         r="0.44999999"
         cy="7.25"
         cx="0.62199998"
         style="fill:#4c062d;fill-opacity:1;stroke:none" />
      <circle
         transform="matrix(10,0,0,10,0.75999975,3.5699999)"
         sodipodi:ry="0.44999999"
         sodipodi:rx="0.44999999"
         sodipodi:cy="5.6789999"
         sodipodi:cx="0.83099997"
         id="circle6043"
         r="0.44999999"
         cy="5.6789999"
         cx="0.83099997"
         style="fill:#4c062d;fill-opacity:1;stroke:none" />
      <circle
         transform="matrix(10,0,0,10,0.75999975,3.5699999)"
         sodipodi:ry="0.44999999"
         sodipodi:rx="0.44999999"
         sodipodi:cy="8.5190001"
         sodipodi:cx="1.257"
         id="circle6045"
         r="0.44999999"
         cy="8.5190001"
         cx="1.257"
         style="fill:#4c062d;fill-opacity:1;stroke:none" />
      <circle
         transform="matrix(10,0,0,10,0.75999975,3.5699999)"
         sodipodi:ry="0.44999999"
         sodipodi:rx="0.44999999"
         sodipodi:cy="6.8769999"
         sodipodi:cx="1.989"
         id="circle6047"
         r="0.44999999"
         cy="6.8769999"
         cx="1.989"
         style="fill:#4c062d;fill-opacity:1;stroke:none" />
      <circle
         transform="matrix(10,0,0,10,0.75999975,3.5699999)"
         sodipodi:ry="0.44999999"
         sodipodi:rx="0.44999999"
         sodipodi:cy="3.181"
         sodipodi:cx="0.37400001"
         id="circle6049"
         r="0.44999999"
         cy="3.181"
         cx="0.37400001"
         style="fill:#4c062d;fill-opacity:1;stroke:none" />
      <circle
         transform="matrix(10,0,0,10,0.75999975,3.5699999)"
         sodipodi:ry="0.44999999"
         sodipodi:rx="0.44999999"
         sodipodi:cy="1.664"
         sodipodi:cx="1.166"
         id="circle6051"
         r="0.44999999"
         cy="1.664"
         cx="1.166"
         style="fill:#4c062d;fill-opacity:1;stroke:none" />
      <circle
         transform="matrix(10,0,0,10,0.75999975,3.5699999)"
         sodipodi:ry="0.44999999"
         sodipodi:rx="0.44999999"
         sodipodi:cy="0.093000002"
         sodipodi:cx="1.151"
         id="circle6053"
         r="0.44999999"
         cy="0.093000002"
         cx="1.151"
         style="fill:#4c062d;fill-opacity:1;stroke:none" />
      <circle
         transform="matrix(10,0,0,10,0.75999975,3.5699999)"
         sodipodi:ry="0.44999999"
         sodipodi:rx="0.44999999"
         sodipodi:cy="10.093"
         sodipodi:cx="1.151"
         id="circle6055"
         r="0.44999999"
         cy="10.093"
         cx="1.151"
         style="fill:#4c062d;fill-opacity:1;stroke:none" />
      <circle
         transform="matrix(10,0,0,10,0.75999975,3.5699999)"
         sodipodi:ry="0.44999999"
         sodipodi:rx="0.44999999"
         sodipodi:cy="4.4510002"
         sodipodi:cx="1.302"
         id="circle6057"
         r="0.44999999"
         cy="4.4510002"
         cx="1.302"
         style="fill:#4c062d;fill-opacity:1;stroke:none" />
      <circle
         transform="matrix(10,0,0,10,0.75999975,3.5699999)"
         sodipodi:ry="0.44999999"
         sodipodi:rx="0.44999999"
         sodipodi:cy="3.763"
         sodipodi:cx="3.0469999"
         id="circle6059"
         r="0.44999999"
         cy="3.763"
         cx="3.0469999"
         style="fill:#4c062d;fill-opacity:1;stroke:none" />
    </pattern>
    <pattern
       patternUnits="userSpaceOnUse"
       width="30.076"
       height="5.1802638"
       patternTransform="translate(-0.01,-4.0260977e-4)"
       id="pattern6416">
      <path
         inkscape:connector-curvature="0"
         id="path6414"
         d="m 7.607,0.06140261 c -2.518,-0.248 -4.941,0.241 -7.607,1.72699999 l 0,1.273 c 2.783,-1.63 5.183,-2.009 7.482,-1.781 2.298,0.228 4.497,1.081 6.781,1.938 4.567,1.713 9.551,3.458 15.813,-0.157 l -0.004,-1.273 c -6.44,3.709 -10.816,1.982 -15.371,0.273 -2.278,-0.854 -4.576,-1.74999999 -7.094,-1.99999999 z"
         style="fill:#5c123a;fill-opacity:1;stroke:none" />
    </pattern>
    <linearGradient
       inkscape:collect="always"
       xlink:href="#linearGradient6421"
       id="linearGradient6425"
       x1="364.3493"
       y1="470.56528"
       x2="470.7301"
       y2="470.56528"
       gradientUnits="userSpaceOnUse"
       gradientTransform="matrix(2.0898067,0,0,2.0912482,-759.78787,-8.4467388)" />
    <linearGradient
       inkscape:collect="always"
       xlink:href="#linearGradient5443"
       id="linearGradient6523"
       gradientUnits="userSpaceOnUse"
       x1="468.15781"
       y1="369.95422"
       x2="481.48779"
       y2="383.27502"
       gradientTransform="matrix(2.0898067,0,0,2.0912482,-759.78787,-8.4467388)" />
    <pattern
       inkscape:collect="always"
       xlink:href="#pattern6416-9"
       id="pattern6519-2"
       patternTransform="matrix(2.0898067,0,-0.83243956,2.0912482,-607.72568,-8.3671247)" />
    <pattern
       patternUnits="userSpaceOnUse"
       width="30.076"
       height="5.1802638"
       patternTransform="translate(-0.01,-4.0260977e-4)"
       id="pattern6416-9">
      <path
         inkscape:connector-curvature="0"
         id="path6414-9"
         d="m 7.607,0.06140261 c -2.518,-0.248 -4.941,0.241 -7.607,1.72699999 l 0,1.273 c 2.783,-1.63 5.183,-2.009 7.482,-1.781 2.298,0.228 4.497,1.081 6.781,1.938 4.567,1.713 9.551,3.458 15.813,-0.157 l -0.004,-1.273 c -6.44,3.709 -10.816,1.982 -15.371,0.273 -2.278,-0.854 -4.576,-1.74999999 -7.094,-1.99999999 z"
         style="fill:#5c123a;fill-opacity:1;stroke:none" />
    </pattern>
    <linearGradient
       inkscape:collect="always"
       xlink:href="#linearGradient6421-0"
       id="linearGradient6425-6"
       x1="364.3493"
       y1="470.56528"
       x2="470.7301"
       y2="470.56528"
       gradientUnits="userSpaceOnUse"
       gradientTransform="matrix(2.0898067,0,0,2.0912482,-760.96454,-865.27768)" />
    <linearGradient
       id="linearGradient6421-0"
       osb:paint="solid">
      <stop
         style="stop-color:#8f004f;stop-opacity:1;"
         offset="0"
         id="stop6423-2" />
    </linearGradient>
    <linearGradient
       inkscape:collect="always"
       xlink:href="#linearGradient6421-0"
       id="linearGradient3570"
       gradientUnits="userSpaceOnUse"
       gradientTransform="matrix(2.0898067,0,0,2.0912482,-999.42225,-8.3662847)"
       x1="364.3493"
       y1="470.56528"
       x2="470.7301"
       y2="470.56528" />
  </defs>
  <sodipodi:namedview
     id="base"
     pagecolor="#ffffff"
     bordercolor="#666666"
     borderopacity="1.0"
     inkscape:pageopacity="0.0"
     inkscape:pageshadow="2"
     inkscape:zoom="1.4142136"
     inkscape:cx="193.51896"
     inkscape:cy="109.33119"
     inkscape:document-units="px"
     inkscape:current-layer="layer1"
     showgrid="false"
     inkscape:window-width="1920"
     inkscape:window-height="1007"
     inkscape:window-x="0"
     inkscape:window-y="24"
     inkscape:window-maximized="1" />
  <metadata
     id="metadata7">
    <rdf:RDF>
      <cc:Work
         rdf:about="">
        <dc:format>image/svg+xml</dc:format>
        <dc:type
           rdf:resource="http://purl.org/dc/dcmitype/StillImage" />
        <dc:title></dc:title>
      </cc:Work>
    </rdf:RDF>
  </metadata>
  <g
     inkscape:label="Layer 1"
     inkscape:groupmode="layer"
     id="layer1"
     transform="translate(0,-796.3622)">
    <path
       style="fill:url(#linearGradient5437);fill-opacity:1;stroke:#000000;stroke-width:3;stroke-linecap:butt;stroke-linejoin:round;stroke-opacity:1;stroke-miterlimit:4;stroke-dasharray:none"
       d="m 3.5725319,920.76291 38.2372051,-124.08652 72.039033,0.24797 c 66.24788,17.37977 112.13454,102.59229 112.74114,138.08294 z"
       id="path3050"
       inkscape:connector-curvature="0"
       sodipodi:nodetypes="ccccc" />
    <path
       style="fill:#af7004;fill-opacity:1;stroke:#000000;stroke-width:3;stroke-linecap:butt;stroke-linejoin:miter;stroke-opacity:1;stroke-miterlimit:4;stroke-dasharray:none"
       d="M 3.5213224,939.69891 224.55758,960.76549 225.06082,934.83365 3.4680023,921.27683 z"
       id="path3052"
       inkscape:connector-curvature="0"
       sodipodi:nodetypes="ccccc" />
    <path
       style="fill:url(#linearGradient6425);fill-opacity:1;stroke:#000000;stroke-width:3;stroke-linecap:butt;stroke-linejoin:miter;stroke-opacity:1;stroke-miterlimit:4;stroke-dasharray:none"
       d="m 2.6766655,940.10522 0.5032463,52.91068 216.8995882,18.1229 2.82264,-50.14285 z"
       id="path3054"
       inkscape:connector-curvature="0"
       sodipodi:nodetypes="ccccc" />
    <path
       style="fill:#eace9d;fill-opacity:1;stroke:#000000;stroke-width:3;stroke-linecap:butt;stroke-linejoin:miter;stroke-opacity:1;stroke-miterlimit:4;stroke-dasharray:none"
       d="m 3.3647552,992.4502 0,25.3937 198.5316448,17.9248 c 28.21022,2.015 48.82408,9.0547 48.51338,-23.8998 l 0.74635,-81.0359 -26.49575,0 -0.85616,20.52209 -2.56843,59.88521 z"
       id="path3056"
       inkscape:connector-curvature="0"
       sodipodi:nodetypes="ccccccccc" />
    <path
       style="fill:url(#linearGradient5449);fill-opacity:1;stroke:#000000;stroke-width:3;stroke-linecap:butt;stroke-linejoin:round;stroke-opacity:1;stroke-miterlimit:4;stroke-dasharray:none"
       d="m 251.52931,931.20644 c -0.20417,-8.5112 2.42069,-16.37433 1.03131,-25.80919 -0.48062,-3.26368 -5.95046,-9.15804 -6.40869,-14.3487 -0.50655,-5.73805 0.74255,-15.83288 -0.84941,-20.00615 -3.72058,-9.75349 -11.2893,-9.94069 -14.11766,-14.12074 -2.60746,-3.85356 -4.33864,-16.53037 -7.2112,-20.6139 -6.93024,-9.85178 -17.1298,-8.48798 -22.31948,-13.52774 -5.18968,-5.03976 -3.34218,-10.90177 -9.26378,-16.16372 -7.3317,-6.51497 -15.55638,-2.76816 -24.70505,-10.0342 l -45.27319,-0.1292 c 44.2877,20.68185 107.3463,77.65146 105.48476,134.49999 z"
       id="path3058"
       inkscape:connector-curvature="0"
       sodipodi:nodetypes="cssssszscccc" />
    <path
       sodipodi:nodetypes="ccccc"
       inkscape:connector-curvature="0"
       id="path6199"
       d="m 3.3686298,940.0829 -0.188718,52.933 216.8995882,18.1229 2.82264,-50.14285 z"
       style="fill:none;stroke:#000000;stroke-width:3;stroke-linecap:butt;stroke-linejoin:miter;stroke-opacity:1;stroke-miterlimit:4;stroke-dasharray:none" />
    <path
       sodipodi:nodetypes="ccccc"
       inkscape:connector-curvature="0"
       id="path6427"
       d="m 3.6032042,940.14986 0.1164838,52.86604 217.149222,18.1229 1.88437,-50.51613 z"
       style="fill:url(#pattern6519);fill-opacity:1;stroke:#000000;stroke-width:3;stroke-linecap:butt;stroke-linejoin:miter;stroke-opacity:1;stroke-miterlimit:4;stroke-dasharray:none" />
    <path
       sodipodi:nodetypes="ccccc"
       inkscape:connector-curvature="0"
       id="path6521"
       d="m 113.31762,796.88124 c 53.6288,15.7537 111.55518,84.91696 111.04377,138.87082 l 4.07441,-5.00877 C 229.00802,878.19511 168.95334,812.41912 122.62419,796.71705 z"
       style="fill:url(#linearGradient6523);fill-opacity:1;stroke:#000000;stroke-width:3;stroke-linecap:butt;stroke-linejoin:round;stroke-opacity:1;stroke-miterlimit:4;stroke-dasharray:none" />
    <path
       style="fill:none;stroke:#000000;stroke-width:3;stroke-linecap:butt;stroke-linejoin:miter;stroke-opacity:1;stroke-miterlimit:4;stroke-dasharray:none"
       d="M 133.16533,805.32421 4.4642856,920.4872"
       id="path6609"
       inkscape:connector-curvature="0"
       sodipodi:nodetypes="cc" />
    <path
       style="fill:none;stroke:#000000;stroke-width:3;stroke-linecap:butt;stroke-linejoin:miter;stroke-opacity:1;stroke-miterlimit:4;stroke-dasharray:none"
       d="M 193.90068,858.33094 4.9441959,920.58768"
       id="path6611"
       inkscape:connector-curvature="0"
       sodipodi:nodetypes="cc" />
    <path
       sodipodi:type="arc"
       style="fill:#5d0f2a;fill-opacity:1;stroke:none"
       id="path3452"
       sodipodi:cx="41.42857"
       sodipodi:cy="172.42857"
       sodipodi:rx="9.2857141"
       sodipodi:ry="8.5714283"
       d="m 50.714284,172.42857 c 0,4.73387 -4.157356,8.57143 -9.285714,8.57143 -5.128359,0 -9.285714,-3.83756 -9.285714,-8.57143 0,-4.73387 4.157355,-8.57142 9.285714,-8.57142 5.128358,0 9.285714,3.83755 9.285714,8.57142 z"
       transform="translate(-12,784.3622)" />
    <path
       transform="translate(18,808.3622)"
       d="m 50.714284,172.42857 c 0,4.73387 -4.157356,8.57143 -9.285714,8.57143 -5.128359,0 -9.285714,-3.83756 -9.285714,-8.57143 0,-4.73387 4.157355,-8.57142 9.285714,-8.57142 5.128358,0 9.285714,3.83755 9.285714,8.57142 z"
       sodipodi:ry="8.5714283"
       sodipodi:rx="9.2857141"
       sodipodi:cy="172.42857"
       sodipodi:cx="41.42857"
       id="path4222"
       style="fill:#5d0f2a;fill-opacity:1;stroke:none"
       sodipodi:type="arc" />
    <path
       sodipodi:type="arc"
       style="fill:#5d0f2a;fill-opacity:1;stroke:none"
       id="path4224"
       sodipodi:cx="41.42857"
       sodipodi:cy="172.42857"
       sodipodi:rx="9.2857141"
       sodipodi:ry="8.5714283"
       d="m 50.714284,172.42857 c 0,4.73387 -4.157356,8.57143 -9.285714,8.57143 -5.128359,0 -9.285714,-3.83756 -9.285714,-8.57143 0,-4.73387 4.157355,-8.57142 9.285714,-8.57142 5.128358,0 9.285714,3.83755 9.285714,8.57142 z"
       transform="translate(42,806.3622)" />
    <path
       transform="translate(74,792.3622)"
       d="m 50.714284,172.42857 c 0,4.73387 -4.157356,8.57143 -9.285714,8.57143 -5.128359,0 -9.285714,-3.83756 -9.285714,-8.57143 0,-4.73387 4.157355,-8.57142 9.285714,-8.57142 5.128358,0 9.285714,3.83755 9.285714,8.57142 z"
       sodipodi:ry="8.5714283"
       sodipodi:rx="9.2857141"
       sodipodi:cy="172.42857"
       sodipodi:cx="41.42857"
       id="path4226"
       style="fill:#5d0f2a;fill-opacity:1;stroke:none"
       sodipodi:type="arc" />
    <path
       sodipodi:type="arc"
       style="fill:#5d0f2a;fill-opacity:1;stroke:none"
       id="path4228"
       sodipodi:cx="41.42857"
       sodipodi:cy="172.42857"
       sodipodi:rx="9.2857141"
       sodipodi:ry="8.5714283"
       d="m 50.714284,172.42857 c 0,4.73387 -4.157356,8.57143 -9.285714,8.57143 -5.128359,0 -9.285714,-3.83756 -9.285714,-8.57143 0,-4.73387 4.157355,-8.57142 9.285714,-8.57142 5.128358,0 9.285714,3.83755 9.285714,8.57142 z"
       transform="translate(94,816.3622)" />
    <path
       transform="translate(116,816.3622)"
       d="m 50.714284,172.42857 c 0,4.73387 -4.157356,8.57143 -9.285714,8.57143 -5.128359,0 -9.285714,-3.83756 -9.285714,-8.57143 0,-4.73387 4.157355,-8.57142 9.285714,-8.57142 5.128358,0 9.285714,3.83755 9.285714,8.57142 z"
       sodipodi:ry="8.5714283"
       sodipodi:rx="9.2857141"
       sodipodi:cy="172.42857"
       sodipodi:cx="41.42857"
       id="path4230"
       style="fill:#5d0f2a;fill-opacity:1;stroke:none"
       sodipodi:type="arc" />
    <path
       sodipodi:type="arc"
       style="fill:#5d0f2a;fill-opacity:1;stroke:none"
       id="path4232"
       sodipodi:cx="41.42857"
       sodipodi:cy="172.42857"
       sodipodi:rx="9.2857141"
       sodipodi:ry="8.5714283"
       d="m 50.714284,172.42857 c 0,4.73387 -4.157356,8.57143 -9.285714,8.57143 -5.128359,0 -9.285714,-3.83756 -9.285714,-8.57143 0,-4.73387 4.157355,-8.57142 9.285714,-8.57142 5.128358,0 9.285714,3.83755 9.285714,8.57142 z"
       transform="translate(132,800.3622)" />
    <path
       transform="translate(154,818.3622)"
       d="m 50.714284,172.42857 c 0,4.73387 -4.157356,8.57143 -9.285714,8.57143 -5.128359,0 -9.285714,-3.83756 -9.285714,-8.57143 0,-4.73387 4.157355,-8.57142 9.285714,-8.57142 5.128358,0 9.285714,3.83755 9.285714,8.57142 z"
       sodipodi:ry="8.5714283"
       sodipodi:rx="9.2857141"
       sodipodi:cy="172.42857"
       sodipodi:cx="41.42857"
       id="path4234"
       style="fill:#5d0f2a;fill-opacity:1;stroke:none"
       sodipodi:type="arc" />
    <text
       xml:space="preserve"
       style="font-size:51.41743088px;font-style:normal;font-variant:normal;font-weight:normal;font-stretch:normal;line-height:125%;letter-spacing:0px;word-spacing:0px;fill:#ffffff;fill-opacity:1;stroke:none;font-family:Symbol;-inkscape-font-specification:Symbol"
       x="60.651917"
       y="992.27203"
       id="text5241"
       sodipodi:linespacing="125%"><tspan
         sodipodi:role="line"
         id="tspan5243"
         x="60.651917"
         y="992.27203"
         style="font-size:257.0871582px;font-style:normal;font-variant:normal;font-weight:normal;font-stretch:normal;fill:#ffffff;fill-opacity:1;font-family:Symbol;-inkscape-font-specification:Symbol">π</tspan></text>
    <path
       style="fill:#ffffff;fill-opacity:1;stroke:none"
       d="m 55.25,100.40625 7.96875,6.01562 L 73.625,81.75 59.25,96.625 z"
       id="path3572"
       inkscape:connector-curvature="0"
       transform="translate(0,796.3622)"
       sodipodi:nodetypes="ccccc" />
    <path
       sodipodi:nodetypes="cccc"
       inkscape:connector-curvature="0"
       id="path4344"
       d="m 187.09375,857.76845 7.96875,6.01562 -11.71875,17.70313 z"
       style="fill:#ffffff;fill-opacity:1;stroke:none" />
    <path
       style="fill:#ffffff;fill-opacity:1;stroke:none"
       d="m 188.90625,945.64345 7.96875,6.01562 -15.96875,23.45313 z"
       id="path4346"
       inkscape:connector-curvature="0"
       sodipodi:nodetypes="cccc" />
    <path
       sodipodi:nodetypes="ccccc"
       inkscape:connector-curvature="0"
       id="path4348"
       d="m 146.64062,985.62787 7.96875,6.0156 10.40625,-24.6719 -14.375,14.875 z"
       style="fill:#ffffff;fill-opacity:1;stroke:none" />
    <path
       sodipodi:nodetypes="ccccc"
       inkscape:connector-curvature="0"
       id="path4350"
       d="m 72.631282,986.54748 7.96875,6.01562 10.40625,-24.67187 -14.375,14.875 z"
       style="fill:#ffffff;fill-opacity:1;stroke:none" />
    <text
       xml:space="preserve"
       style="font-size:51.41743088px;font-style:normal;font-variant:normal;font-weight:normal;font-stretch:normal;line-height:125%;letter-spacing:0px;word-spacing:0px;fill:#000000;fill-opacity:1;stroke:none;font-family:Symbol;-inkscape-font-specification:Symbol"
       x="52.651917"
       y="986.27203"
       id="text3082"
       sodipodi:linespacing="125%"><tspan
         sodipodi:role="line"
         id="tspan3084"
         x="52.651917"
         y="986.27203"
         style="font-size:257.0871582px;font-style:normal;font-variant:normal;font-weight:normal;font-stretch:normal;font-family:Symbol;-inkscape-font-specification:Symbol">π</tspan></text>
  </g>
</svg>
